HIERARCHY
ROOT hip
{
	OFFSET 0.000000 0.000000 0.000000 
	CHANNELS 6 Xposition Yposition Zposition Xrotation Zrotation Yrotation
	JOINT abdomen
	{
		OFFSET 0.000000 3.402643 0.000000 
		CHANNELS 3 Xrotation Zrotation Yrotation
		JOINT chest
		{
			OFFSET 0.000000 8.438565 -0.680529 
			CHANNELS 3 Xrotation Zrotation Yrotation
			JOINT neck
			{
				OFFSET 0.000000 10.207942 -0.272212 
				CHANNELS 3 Xrotation Zrotation Yrotation
				JOINT head
				{
					OFFSET 0.000000 3.130431 0.000000 
					CHANNELS 3 Xrotation Zrotation Yrotation
					End Site
					{
						OFFSET 0.000000 3.130435 0.000000 
					}
				}
			}
			JOINT lCollar
			{
				OFFSET 3.470700 6.669187 -0.816635 
				CHANNELS 3 Yrotation Zrotation Xrotation
				JOINT lShldr
				{
					OFFSET 3.198488 0.000000 0.000000 
					CHANNELS 3 Zrotation Yrotation Xrotation
					JOINT lForeArm
					{
						OFFSET 10.139888 0.000000 0.000000 
						CHANNELS 3 Yrotation Zrotation Xrotation
						JOINT lHand
						{
							OFFSET 8.370511 0.000000 0.000000 
							CHANNELS 3 Zrotation Yrotation Xrotation
							End Site
							{
								OFFSET 4.083176 0.000000 0.000000 
							}
						}
					}
				}
			}
			JOINT rCollar
			{
				OFFSET -3.470700 6.669187 -0.816635 
				CHANNELS 3 Yrotation Zrotation Xrotation
				JOINT rShldr
				{
					OFFSET -3.198488 0.000000 0.000000 
					CHANNELS 3 Zrotation Yrotation Xrotation
					JOINT rForeArm
					{
						OFFSET -10.139888 0.000000 0.000000 
						CHANNELS 3 Yrotation Zrotation Xrotation
						JOINT rHand
						{
							OFFSET -8.370511 0.000000 0.000000 
							CHANNELS 3 Zrotation Yrotation Xrotation
							End Site
							{
								OFFSET -4.083176 0.000000 0.000000 
							}
						}
					}
				}
			}
		}
	}
	JOINT lThigh
	{
		OFFSET 5.308129 -1.633274 1.361059 
		CHANNELS 3 Xrotation Zrotation Yrotation
		JOINT lShin
		{
			OFFSET -2.041588 -20.007561 0.000000 
			CHANNELS 3 Xrotation Zrotation Yrotation
			JOINT lFoot
			{
				OFFSET 0.000000 -19.190928 -1.224953 
				CHANNELS 3 Xrotation Yrotation Zrotation
				End Site
				{
					OFFSET 0.000000 -2.449906 4.627600 
				}
			}
		}
	}
	JOINT rThigh
	{
		OFFSET -5.308129 -1.633274 1.361059 
		CHANNELS 3 Xrotation Zrotation Yrotation
		JOINT rShin
		{
			OFFSET 2.041588 -20.007561 0.000000 
			CHANNELS 3 Xrotation Zrotation Yrotation
			JOINT rFoot
			{
				OFFSET 0.000000 -19.190928 -1.224953 
				CHANNELS 3 Xrotation Yrotation Zrotation
				End Site
				{
					OFFSET 0.000000 -2.449906 4.627600 
				}
			}
		}
	}
}
MOTION
Frames: 8
Frame Time: 0.016667
-0.510285 52.905376 -2.638492 -11.396604 0.039062 -0.175781 25.486809 1.478685 -0.078887 2.328333 1.191140 -1.836082 -6.344469 2.733130 -0.344305 15.465418 -3.256802 3.149435 -17.166170 -10.112974 -0.533895 -64.999321 13.695199 -24.111511 -24.584499 -5.000000 25.356476 -18.139893 -7.582532 5.497531 13.837146 12.892860 -0.685298 65.335457 -8.437480 -19.569427 25.454569 5.000000 12.199913 18.838810 -22.938683 12.109951 18.933870 12.245436 7.566532 4.867551 -4.644655 -0.542436 -9.732995 4.822537 -5.319468 22.849295 -7.626473 -11.134133 -2.118579 2.634940 -0.069145 -3.625709 -12.022488 7.718282 
-0.515071 52.905384 -2.641989 -11.416191 0.068359 -0.146484 25.524858 1.444125 -0.124641 2.375916 1.230185 -1.875136 -6.530633 2.681928 -0.356296 15.324270 -3.276118 3.207931 -16.990578 -10.132506 -0.534909 -64.987518 13.542238 -23.986277 -24.612261 -5.000000 25.316822 -18.119455 -7.505102 5.712843 13.768909 12.902625 -0.685804 65.320641 -8.312069 -19.442059 25.434111 5.000000 12.123534 18.706987 -22.934708 12.092116 18.922340 12.244608 7.556191 4.874245 -4.651603 -0.553131 -9.734422 4.773051 -5.321617 22.870119 -7.627473 -11.144343 -2.111644 2.627513 -0.078540 -3.625108 -12.035711 7.755133 
-0.519292 52.904762 -2.645089 -11.435707 0.078125 -0.117187 25.553530 1.423806 -0.154153 2.413491 1.269224 -1.904420 -6.716447 2.651499 -0.361562 15.213506 -3.295492 3.247487 -16.834515 -10.152036 -0.535922 -64.982872 13.414647 -23.893848 -24.617058 -5.000000 25.317682 -17.968307 -7.448603 5.821846 13.700790 12.922140 -0.686815 65.321007 -8.199648 -19.352600 25.421827 5.000000 12.071790 18.510168 -22.939152 12.047197 18.933468 12.245303 7.536575 4.883715 -4.641616 -0.553654 -9.744816 4.771844 -5.321985 22.895658 -7.616456 -11.161659 -2.104716 2.619130 -0.106988 -3.686507 -12.046473 7.767365 
-0.522947 52.903511 -2.647789 -11.464976 0.078125 -0.097656 25.592319 1.417551 -0.167347 2.441699 1.288736 -1.933707 -6.901934 2.641844 -0.360103 15.133150 -3.324710 3.257235 -16.688313 -10.181317 -0.537436 -64.992615 13.304359 -23.825516 -24.609993 -5.000000 25.325424 -17.696478 -7.412012 5.828623 13.632672 12.941655 -0.687825 65.328598 -8.107535 -19.308353 25.406948 5.000000 12.055707 18.250324 -22.958424 11.966827 18.943382 12.265448 7.511833 4.897666 -4.655330 -0.554749 -9.760985 4.781107 -5.284473 22.906948 -7.616653 -11.191586 -2.073874 2.608184 -0.065709 -3.734417 -12.062119 7.809917 
-0.526603 52.902264 -2.650489 -11.484495 0.078125 -0.087891 25.631458 1.407652 -0.170897 2.469887 1.308247 -1.963216 -7.087863 2.630726 -0.368289 15.052211 -3.353894 3.276730 -16.551876 -10.210596 -0.538950 -65.004257 13.198242 -23.765806 -24.600668 -5.000000 25.344183 -17.426805 -7.382020 5.846683 13.554790 12.961172 -0.691026 65.334679 -8.020266 -19.251211 25.400784 5.000000 12.029188 17.992624 -22.970236 11.887028 18.957165 12.262476 7.502783 4.909479 -4.657289 -0.545808 -9.777375 4.762677 -5.325019 22.927748 -7.616863 -11.191558 -2.057145 2.621402 -0.065038 -3.776860 -12.062779 7.870672 
-0.528600 52.902340 -2.654192 -11.504040 0.097656 -0.078125 25.650778 1.376309 -0.173988 2.489419 1.308247 -1.963216 -7.225153 2.648574 -0.380853 14.994206 -3.363709 3.257232 -16.493565 -10.239861 -0.540459 -65.020714 13.146745 -23.769377 -24.575607 -5.000000 25.341974 -17.004892 -7.400991 5.664924 13.496439 12.980686 -0.692040 65.362747 -7.992863 -19.263458 25.389999 5.000000 12.040193 17.594948 -22.985395 11.781962 18.957167 12.262472 7.502783 4.913800 -4.652284 -0.565967 -9.774611 4.775908 -5.330115 22.940315 -7.615622 -11.241873 -2.049920 2.615128 -0.054487 -3.827685 -12.067509 7.854452 
-0.530597 52.902416 -2.657896 -11.513801 0.107422 -0.068359 25.679996 1.345271 -0.176359 2.508725 1.318010 -1.963216 -7.362386 2.656768 -0.391958 14.935633 -3.373492 3.247482 -16.425488 -10.269130 -0.541970 -65.047745 13.104274 -23.777477 -24.550547 -5.000000 25.339754 -16.582939 -7.417738 5.483183 13.437967 12.990448 -0.692547 65.389305 -7.970279 -19.261471 25.387690 5.000000 12.057687 17.207422 -22.988707 11.656803 18.950632 12.254605 7.510003 4.936770 -4.655560 -0.606582 -9.777398 4.806945 -5.325394 22.943708 -7.636048 -11.257253 -2.027282 2.619915 -0.063190 -3.864498 -12.037538 7.852852 
-0.532186 52.902409 -2.661550 -11.533323 0.117187 -0.058594 25.680073 1.323247 -0.174807 2.528031 1.318005 -1.963213 -7.479639 2.666423 -0.393417 14.868402 -3.363774 3.237734 -16.367083 -10.288645 -0.542977 -65.066994 13.078699 -23.790115 -24.516378 -5.000000 25.337238 -16.176022 -7.429255 5.272219 13.399147 13.009957 -0.693560 65.410957 -7.945295 -19.295309 25.385374 5.000000 12.075184 16.768190 -22.985188 11.555327 18.950500 12.254559 7.500016 4.948943 -4.657309 -0.587885 -9.773898 4.783117 -5.348199 22.958162 -7.627221 -11.284391 -2.024724 2.609083 -0.072533 -3.876932 -12.052375 7.846221 
